<svg width="35" height="36" viewBox="0 0 35 36" fill="none" xmlns="http://www.w3.org/2000/svg">
<path d="M17.5 9C15.7694 9 14.0777 9.52784 12.6388 10.5168C11.1998 11.5057 10.0783 12.9113 9.41605 14.5558C8.75379 16.2004 8.58051 18.01 8.91813 19.7558C9.25575 21.5016 10.0891 23.1053 11.3128 24.364C12.5365 25.6226 14.0956 26.4798 15.793 26.8271C17.4903 27.1743 19.2496 26.9961 20.8485 26.3149C22.4473 25.6337 23.8139 24.4802 24.7754 23.0001C25.7368 21.5201 26.25 19.78 26.25 18C26.25 15.6131 25.3281 13.3239 23.6872 11.636C22.0462 9.94821 19.8206 9 17.5 9ZM17.5 23.4C16.4616 23.4 15.4466 23.0833 14.5833 22.4899C13.7199 21.8966 13.047 21.0532 12.6496 20.0665C12.2523 19.0798 12.1483 17.994 12.3509 16.9465C12.5534 15.899 13.0535 14.9368 13.7877 14.1816C14.5219 13.4264 15.4574 12.9121 16.4758 12.7038C17.4942 12.4954 18.5498 12.6023 19.5091 13.011C20.4684 13.4198 21.2883 14.1119 21.8652 14.9999C22.4421 15.8879 22.75 16.932 22.75 18C22.75 19.4322 22.1969 20.8057 21.2123 21.8184C20.2277 22.8311 18.8924 23.4 17.5 23.4ZM26.25 7.2C25.9039 7.2 25.5655 7.30557 25.2778 7.50335C24.99 7.70114 24.7657 7.98226 24.6332 8.31117C24.5008 8.64008 24.4661 9.002 24.5336 9.35116C24.6012 9.70033 24.7678 10.0211 25.0126 10.2728C25.2573 10.5245 25.5691 10.696 25.9086 10.7654C26.2481 10.8349 26.5999 10.7992 26.9197 10.663C27.2395 10.5267 27.5128 10.296 27.7051 10C27.8974 9.70402 28 9.35601 28 9C28 8.52261 27.8156 8.06477 27.4874 7.72721C27.1593 7.38964 26.7141 7.2 26.25 7.2ZM34.895 11.232C34.866 9.69376 34.5819 8.1719 34.055 6.732C33.5664 5.42172 32.8153 4.23178 31.8505 3.23946C30.8858 2.24713 29.7289 1.47459 28.455 0.972C27.0551 0.430019 25.5755 0.137822 24.08 0.108C22.3825 -1.00583e-07 21.8225 0 17.5 0C13.1775 0 12.6175 -1.00583e-07 10.92 0.108C9.42449 0.137822 7.94491 0.430019 6.545 0.972C5.27111 1.47459 4.11424 2.24713 3.14947 3.23946C2.18471 4.23178 1.43363 5.42172 0.945 6.732C0.418074 8.1719 0.133993 9.69376 0.105 11.232C-9.77889e-08 12.996 0 13.572 0 18C0 22.428 -9.77889e-08 23.004 0.105 24.768C0.133993 26.3062 0.418074 27.8281 0.945 29.268C1.43363 30.5783 2.18471 31.7682 3.14947 32.7605C4.11424 33.7529 5.27111 34.5254 6.545 35.028C7.94491 35.57 9.42449 35.8622 10.92 35.892C12.67 35.892 13.1775 36 17.5 36C21.8225 36 22.3825 36 24.08 35.892C25.5755 35.8622 27.0551 35.57 28.455 35.028C29.7289 34.5254 30.8858 33.7529 31.8505 32.7605C32.8153 31.7682 33.5664 30.5783 34.055 29.268C34.5819 27.8281 34.866 26.3062 34.895 24.768C34.895 22.968 35 22.428 35 18C35 13.572 35 12.996 34.895 11.232ZM31.395 24.606C31.3643 25.7483 31.1576 26.8784 30.7825 27.954C30.4724 28.8042 29.9822 29.5728 29.3475 30.204C28.7375 30.8571 27.9888 31.3561 27.16 31.662C26.1118 32.0636 25.0058 32.2826 23.8875 32.31C22.2425 32.31 21.735 32.4 17.4825 32.4C13.23 32.4 12.74 32.4 11.095 32.4C9.97853 32.3703 8.87382 32.1577 7.8225 31.77C6.9959 31.451 6.24867 30.9468 5.635 30.294C5.00002 29.6666 4.51486 28.8965 4.2175 28.044C3.82866 26.9716 3.61576 25.8402 3.5875 24.696C3.5875 22.896 3.5875 22.446 3.5875 18.09C3.5875 13.734 3.5875 13.212 3.5875 11.484C3.61766 10.3342 3.83047 9.19716 4.2175 8.118C4.51948 7.27314 5.00418 6.50992 5.635 5.886C6.24501 5.23288 6.99371 4.73385 7.8225 4.428C8.87073 4.02641 9.97673 3.80741 11.095 3.78C12.74 3.6 13.2475 3.6 17.5 3.6C21.7525 3.6 22.26 3.6 23.905 3.6C25.0287 3.62939 26.1402 3.8483 27.195 4.248C28.0164 4.5586 28.7584 5.05716 29.365 5.706C30 6.33344 30.4851 7.10353 30.7825 7.956C31.2109 9.05141 31.4536 10.2142 31.5 11.394C31.5 13.194 31.5875 13.644 31.5875 18C31.5875 22.356 31.5 22.878 31.5 24.606H31.395Z" fill="white"/>
</svg>
