<svg width="35" height="36" viewBox="0 0 35 36" fill="none" xmlns="http://www.w3.org/2000/svg">
<path d="M32.412 0.000251692H2.58803C2.25278 -0.00450856 1.9199 0.0582964 1.60839 0.18508C1.29688 0.311863 1.01286 0.500142 0.772531 0.739163C0.532204 0.978184 0.340284 1.26327 0.207732 1.57813C0.0751803 1.89299 0.00459224 2.23146 0 2.57422V33.4258C0.00459224 33.7685 0.0751803 34.107 0.207732 34.4219C0.340284 34.7367 0.532204 35.0218 0.772531 35.2608C1.01286 35.4999 1.29688 35.6881 1.60839 35.8149C1.9199 35.9417 2.25278 36.0045 2.58803 35.9997H32.412C32.7472 36.0045 33.0801 35.9417 33.3916 35.8149C33.7031 35.6881 33.9871 35.4999 34.2275 35.2608C34.4678 35.0218 34.6597 34.7367 34.7923 34.4219C34.9248 34.107 34.9954 33.7685 35 33.4258V2.57422C34.9954 2.23146 34.9248 1.89299 34.7923 1.57813C34.6597 1.26327 34.4678 0.978184 34.2275 0.739163C33.9871 0.500142 33.7031 0.311863 33.3916 0.18508C33.0801 0.0582964 32.7472 -0.00450856 32.412 0.000251692ZM10.6162 30.1318H5.33451V13.9321H10.6162V30.1318ZM7.97535 11.6641C7.24694 11.6641 6.54836 11.3682 6.0333 10.8417C5.51823 10.3151 5.22887 9.60085 5.22887 8.85613C5.22887 8.11141 5.51823 7.39719 6.0333 6.8706C6.54836 6.34401 7.24694 6.04817 7.97535 6.04817C8.36214 6.00332 8.75383 6.0425 9.12478 6.16316C9.49573 6.28381 9.83757 6.4832 10.1279 6.74829C10.4183 7.01337 10.6506 7.33817 10.8096 7.70141C10.9687 8.06465 11.0509 8.45815 11.0509 8.85613C11.0509 9.25411 10.9687 9.6476 10.8096 10.0108C10.6506 10.3741 10.4183 10.6989 10.1279 10.964C9.83757 11.2291 9.49573 11.4284 9.12478 11.5491C8.75383 11.6698 8.36214 11.7089 7.97535 11.6641ZM29.6655 30.1318H24.3838V21.438C24.3838 19.26 23.6268 17.838 21.7077 17.838C21.1138 17.8424 20.5355 18.0329 20.0508 18.3837C19.566 18.7345 19.198 19.2288 18.9965 19.8C18.8587 20.223 18.799 20.6686 18.8204 21.114V30.1138H13.5387C13.5387 30.1138 13.5387 15.39 13.5387 13.9141H18.8204V16.2C19.3002 15.3488 19.9981 14.6476 20.8388 14.1718C21.6795 13.6961 22.6313 13.4638 23.5915 13.5001C27.1127 13.5001 29.6655 15.822 29.6655 20.808V30.1318Z" fill="white"/>
</svg>
