<svg width="18" height="17" viewBox="0 0 18 17" fill="none" xmlns="http://www.w3.org/2000/svg">
<path d="M17.9698 6.42742C17.913 6.26491 17.8098 6.12216 17.6726 6.0165C17.5354 5.91083 17.3701 5.84679 17.1969 5.83213L12.0828 5.09469L9.79094 0.501205C9.71734 0.350987 9.60243 0.224301 9.45937 0.135657C9.31631 0.0470143 9.15088 0 8.98204 0C8.8132 0 8.64777 0.0470143 8.50471 0.135657C8.36165 0.224301 8.24674 0.350987 8.17314 0.501205L5.88126 5.0858L0.767223 5.83213C0.600879 5.85551 0.444494 5.9245 0.315812 6.0313C0.187131 6.13809 0.0913064 6.2784 0.0392134 6.43631C-0.00847119 6.59061 -0.0127503 6.75484 0.0268353 6.91137C0.0664208 7.0679 0.148377 7.21082 0.263908 7.32479L3.97586 10.8787L3.07708 15.9254C3.04079 16.0928 3.05421 16.267 3.11571 16.427C3.17722 16.5871 3.28419 16.7262 3.42376 16.8275C3.56334 16.9289 3.72956 16.9882 3.90245 16.9984C4.07534 17.0086 4.24752 16.9692 4.39828 16.8849L8.98204 14.5127L13.5658 16.8849C13.6919 16.9553 13.8344 16.992 13.9792 16.9915C14.1696 16.9922 14.3553 16.9331 14.5095 16.8227C14.649 16.724 14.7569 16.5879 14.8206 16.4304C14.8843 16.273 14.9011 16.1008 14.869 15.9342L13.9703 10.8876L17.6822 7.33368C17.812 7.225 17.9079 7.08215 17.9588 6.92173C18.0097 6.76131 18.0135 6.5899 17.9698 6.42742ZM12.4423 9.98137C12.3383 10.0812 12.2603 10.2045 12.2149 10.3407C12.1695 10.4768 12.1581 10.6218 12.1817 10.7632L12.8288 14.4949L9.44941 12.7179C9.31807 12.6537 9.17351 12.6203 9.02698 12.6203C8.88045 12.6203 8.73589 12.6537 8.60456 12.7179L5.22516 14.4949L5.87227 10.7632C5.89586 10.6218 5.88447 10.4768 5.83908 10.3407C5.79369 10.2045 5.71566 10.0812 5.61163 9.98137L2.9153 7.31591L6.69915 6.77393C6.84475 6.75391 6.98316 6.69889 7.10225 6.61369C7.22134 6.5285 7.31747 6.41573 7.38222 6.28526L8.98204 2.90012L10.6717 6.29415C10.7365 6.42461 10.8326 6.53738 10.9517 6.62258C11.0708 6.70778 11.2092 6.7628 11.3548 6.78282L15.1387 7.32479L12.4423 9.98137Z" fill="white"/>
</svg>
