<svg width="35" height="29" viewBox="0 0 35 29" fill="none" xmlns="http://www.w3.org/2000/svg">
<path d="M35 3.4744C33.6846 4.05523 32.2935 4.4392 30.87 4.61436C32.3718 3.70118 33.4972 2.26458 34.0375 0.571051C32.6262 1.42614 31.0813 2.0286 29.47 2.35224C28.393 1.16343 26.9587 0.372085 25.3922 0.102333C23.8256 -0.16742 22.2155 0.0996733 20.8141 0.861723C19.4128 1.62377 18.2996 2.83767 17.6492 4.31305C16.9987 5.78842 16.8478 7.44181 17.22 9.0139C14.3665 8.867 11.5753 8.11076 9.02765 6.79429C6.48002 5.47783 4.23298 3.63059 2.4325 1.37259C1.80099 2.49504 1.46916 3.76619 1.47 5.05966C1.46776 6.26086 1.75738 7.44399 2.31307 8.50371C2.86876 9.56342 3.67328 10.4668 4.655 11.1335C3.51396 11.1019 2.3973 10.7903 1.4 10.2251V10.3142C1.40855 11.9972 1.98799 13.6256 3.0403 14.9238C4.09261 16.2221 5.5532 17.1106 7.175 17.4389C6.5507 17.6323 5.90253 17.7343 5.25 17.7418C4.79831 17.7364 4.34774 17.6947 3.9025 17.6171C4.36434 19.0648 5.25809 20.3301 6.45938 21.2367C7.66067 22.1434 9.10976 22.6464 10.605 22.6757C8.08011 24.6978 4.9628 25.8014 1.75 25.8106C1.16504 25.8125 0.580537 25.7768 0 25.7037C3.28025 27.8594 7.10292 29.0037 11.0075 28.9989C13.702 29.0274 16.375 28.5091 18.8705 27.4743C21.3659 26.4396 23.6338 24.9091 25.5416 22.9722C27.4494 21.0354 28.9589 18.731 29.982 16.1937C31.005 13.6564 31.5211 10.9371 31.5 8.19456C31.5 7.89175 31.5 7.57114 31.5 7.25052C32.8732 6.20819 34.0576 4.93039 35 3.4744Z" fill="white"/>
</svg>
